<svg id="Layer_1" enable-background="new 0 0 512 512" height="512" viewBox="0 0 512 512" width="512" xmlns="http://www.w3.org/2000/svg"><path clip-rule="evenodd" d="m306 0h-100c-60.654 0-110 49.346-110 110v200c0 57.283 44.015 104.471 100 109.541v16.459c0 15.53 11.861 28.34 27 29.85v36.15c0 5.523 4.477 10 10 10h46c5.523 0 10-4.477 10-10v-36.15c15.139-1.51 27-14.32 27-29.85v-16.459c55.984-5.07 100-52.258 100-109.541v-200c0-60.654-49.346-110-110-110zm-63 492v-26h26v26zm43-46h-60c-5.514 0-10-4.486-10-10v-16h80v16c0 5.514-4.485 10-10 10zm20-46h-100c-46.245 0-84.45-35.063-89.441-79.999h75.641c11 0 20-9 20-20s-9-20-20-20h-76.2v-50.001h76.2c11 0 20-9 20-20s-9-20-20-20h-76.2v-50.002h76.2c11 0 20-9 20-20s-9-20-20-20h-75.642c4.992-44.935 43.196-79.998 89.442-79.998h100c46.246 0 84.45 35.063 89.441 79.999h-75.641c-11 0-20 9-20 20s9 20 20 20h76.2v50.001h-76.2c-11 0-20 9-20 20s9 20 20 20h76.2v50.002h-76.2c-11 0-20 9-20 20s9 20 20 20h75.641c-4.991 44.936-43.195 79.998-89.441 79.998z" fill-rule="evenodd"/></svg>