<svg id="Layer_1" enable-background="new 0 0 512.58 512.58" height="512" viewBox="0 0 512.58 512.58" width="512" xmlns="http://www.w3.org/2000/svg"><g><path d="m512.081 480.257-33.22-159.967h3.429c16.542 0 30-13.458 30-30v-33.5c0-21.456-12.887-35.312-35.357-38.015-96.273-11.578-171.581-86.907-183.136-183.186-2.691-22.433-16.362-35.299-37.507-35.299s-34.816 12.866-37.507 35.299c-11.555 96.279-86.863 171.608-183.136 183.187-22.47 2.702-35.357 16.558-35.357 38.014v33.5c0 16.542 13.458 30 30 30h3.429l-33.22 159.967c-1.491 7.182.385 14.452 5.283 20.471 5.803 7.131 15.194 11.562 24.508 11.562h102.375c.005 0 .01.001.015.001s.01-.001.015-.001h247.196.008.008 102.383c9.314 0 18.705-4.43 24.508-11.562 4.898-6.021 6.774-13.29 5.283-20.471zm-172.447-307.353c36.275 36.285 84.188 59.628 134.911 65.729 12.604 1.516 17.745 6.776 17.745 18.158v33.5c0 5.514-4.486 10-10 10h-102.332c.579-2.903.892-6.036.892-9.35v-32.411c0-26.36-10.844-34.603-19.94-36.875-37.059-9.26-68.15-67.931-78.675-144.472 10.947 35.872 30.647 68.962 57.399 95.721zm-5.064 127.385c-4.128-11.639-15.243-20-28.28-20h-100c-13.036 0-24.151 8.361-28.279 20h-24.528c-.787-1.628-1.752-4.855-1.752-9.35v-32.411c0-11.243 2.405-16.876 4.789-17.472 25.896-6.47 48.952-29.359 66.676-66.192 16.713-34.731 27.451-80.409 30.235-128.619.513-8.876 1.918-13.17 2.859-15.108.941 1.938 2.347 6.232 2.859 15.108 2.785 48.21 13.523 93.888 30.235 128.619 17.724 36.833 40.78 59.722 66.676 66.192 2.383.596 4.788 6.229 4.788 17.472v32.411c0 4.495-.965 7.721-1.751 9.35zm-145.957 129.664c9.429-29.094 15.992-63.235 17.392-89.664h100.569c1.4 26.429 7.963 60.57 17.392 89.664 6.539 20.175 16.517 44.521 30.461 62.336h-196.275c13.943-17.816 23.922-42.161 30.461-62.336zm-168.323-139.663v-33.5c0-11.381 5.141-16.642 17.745-18.158 50.723-6.101 98.636-29.443 134.911-65.729 26.752-26.759 46.453-59.85 57.401-95.723-10.525 76.542-41.616 135.213-78.675 144.473-9.097 2.272-19.94 10.515-19.94 36.875v32.411c0 3.309.317 6.443.903 9.35h-102.345c-5.514 0-10-4.485-10-9.999zm1.006 197.815c-1.593-1.958-1.308-3.331-1.214-3.782l34.064-164.034h122.144v10c0 5.422 4.318 9.826 9.701 9.985-2.821 51.538-25.765 131.456-56.204 152.015h-99.497c-3.291 0-6.99-1.72-8.994-4.184zm469.989-.001c-2.005 2.464-5.704 4.185-8.995 4.185h-99.498c-30.438-20.558-53.382-100.477-56.204-152.015 5.383-.159 9.701-4.563 9.701-9.985v-10h25.248.004 96.894l34.064 164.034c.094.451.379 1.824-1.214 3.781z"/><path d="m107.226 344.615c-5.495-.567-10.409 3.42-10.979 8.914l-6.783 65.324c-.57 5.493 3.421 10.409 8.914 10.979.351.036.7.054 1.045.054 5.059 0 9.4-3.826 9.935-8.968l6.783-65.324c.569-5.493-3.422-10.408-8.915-10.979z"/><path d="m416.334 353.529c-.571-5.494-5.492-9.482-10.979-8.914-5.493.571-9.484 5.486-8.914 10.979l6.783 65.324c.534 5.143 4.875 8.968 9.935 8.968.345 0 .694-.018 1.045-.054 5.493-.571 9.484-5.486 8.914-10.979z"/></g></svg>