<svg id="Layer_1" enable-background="new 0 0 512 512" height="512" viewBox="0 0 512 512" width="512" xmlns="http://www.w3.org/2000/svg"><path clip-rule="evenodd" d="m502 26h-80-332-80c-5.522 0-10 4.477-10 10v280 160c0 5.523 4.478 10 10 10h492c5.522 0 10-4.477 10-10v-160-280c0-5.523-4.478-10-10-10zm-354.734 60c4.452 17.233 20.13 30 38.734 30 15.045 0 28.172-8.353 35-20.663 6.828 12.31 19.955 20.663 35 20.663s28.172-8.353 35-20.663c6.828 12.31 19.955 20.663 35.001 20.663 18.604 0 34.282-12.767 38.733-30h47.266v220h-312v-220h.001zm18.734-10c0-11.028 8.972-20 20-20s20 8.972 20 20-8.972 20-20 20-20-8.972-20-20zm70 0c0-11.028 8.972-20 20-20s20 8.972 20 20-8.972 20-20 20-20-8.972-20-20zm70 0c0-11.028 8.973-20 20.001-20 11.027 0 19.999 8.972 19.999 20s-8.972 20-19.999 20c-11.028 0-20.001-8.972-20.001-20zm126 121.648 54.369 47.573-54.369 47.574zm-352 95.147-54.369-47.573 54.369-47.574zm-15.28 13.205h-44.72v-39.13zm427.28-39.13v39.13h-44.72zm0-43.297-54.369-47.573 54.369-47.573zm-60-69.221v-95.147l54.369 47.573zm-20-88.352h-47.266c-2.031-7.861-6.404-14.786-12.319-20h59.585zm-121-9.337c-2.236-4.032-5.15-7.635-8.585-10.663h17.17c-3.435 3.028-6.349 6.631-8.585 10.663zm-70 0c-2.236-4.032-5.15-7.635-8.585-10.663h17.17c-3.435 3.028-6.349 6.631-8.585 10.663zm-73.734 9.337h-47.265-.001v-20h59.585c-5.915 5.215-10.288 12.139-12.319 20zm-67.266 88.352-54.369-47.573 54.369-47.574zm-5.631 21.648-54.369 47.573v-95.147zm417.631-90.87-44.719-39.13h44.719zm-427.281-39.13-44.719 39.13v-39.13zm-44.719 420v-109.999h472v109.999z" fill-rule="evenodd"/></svg>