<svg id="Layer_1" enable-background="new 0 0 512 512" height="512" viewBox="0 0 512 512" width="512" xmlns="http://www.w3.org/2000/svg"><path clip-rule="evenodd" d="m512 285.999c0-18.468-7.129-35.893-20.072-49.065-1.833-1.865-3.763-3.602-5.761-5.234 15.251-7.21 25.833-22.741 25.833-40.703 0-63.411-51.588-115-114.999-115h-6.912c-.003 0-.007 0-.01 0h-119.99c-.003 0-.007 0-.01 0h-119.99c-.003 0-.007 0-.01 0h-35.079c-63.411 0-115 51.588-115 115 0 17.961 10.581 33.492 25.835 40.704-1.999 1.631-3.928 3.368-5.761 5.233-12.945 13.173-20.074 30.597-20.074 49.065s7.129 35.893 20.073 49.065c1.576 1.603 3.218 3.118 4.917 4.549-14.705 6.543-24.99 21.283-24.99 38.389 0 31.981 26.019 58 58 58h396c31.98 0 57.999-26.019 57.999-58 0-17.106-10.284-31.845-24.99-38.388 1.699-1.431 3.342-2.946 4.917-4.549 12.945-13.173 20.074-30.597 20.074-49.066zm-397-190.001h14.128c-11.198 17.099-17.212 37.087-17.212 58.001 0 5.523 4.477 10 10 10s10-4.477 10-10c0-21.663 7.945-42.103 22.449-58.001h94.762c-11.198 17.098-17.211 37.086-17.211 58.001 0 5.523 4.477 10 10 10s10-4.477 10-10c0-21.663 7.945-42.103 22.449-58.001h94.762c-11.198 17.098-17.211 37.086-17.211 58.001 0 5.523 4.478 10 10 10s10-4.477 10-10c0-21.663 7.945-42.103 22.449-58.001h2.635c52.383 0 94.999 42.617 94.999 95 0 13.785-11.215 25-24.999 25h-422c-13.785 0-25-11.215-25-25 0-52.383 42.617-95 95-95zm-95 190.001c0-1.653.085-3.289.245-4.904 3.622-1.543 7.897-2.596 13.574-2.596 21.472 0 22.964 15 44.436 15s22.964-15 44.436-15 22.964 15 44.436 15 22.964-15 44.436-15 22.964 15 44.436 15 22.964-15 44.436-15 22.964 15 44.436 15 22.964-15 44.436-15 22.964 15 44.436 15 22.964-15 44.436-15c5.677 0 9.951 1.053 13.574 2.596.16 1.615.245 3.25.245 4.904 0 27.095-22.039 49.522-49.129 49.995-.039.001-.076.007-.115.008h-373.51c-.039-.001-.076-.007-.115-.008-27.089-.473-49.129-22.9-49.129-49.995zm434 130.003h-396c-20.954 0-38-17.047-38-38 0-12.131 9.869-22 22-22h428c12.13 0 21.999 9.869 21.999 22 .001 20.953-17.045 38-37.999 38z" fill-rule="evenodd"/></svg>