<svg id="Layer_1" enable-background="new 0 0 511.999 511.999" height="512" viewBox="0 0 511.999 511.999" width="512" xmlns="http://www.w3.org/2000/svg"><path clip-rule="evenodd" d="m500.131 443.567-194.739-188.39 159.921-165.311c10.698-2.039 21.092-7.714 29.616-16.237 19.491-19.493 22.663-48.038 7.069-63.632-7.83-7.83-19.402-11.31-31.767-9.543-11.475 1.639-22.792 7.539-31.866 16.613-8.522 8.523-14.197 18.917-16.236 29.615l-166.129 160.713-166.13-160.713c-2.039-10.698-7.714-21.091-16.236-29.615-9.075-9.074-20.392-14.974-31.867-16.613-12.358-1.766-23.938 1.713-31.767 9.543-15.594 15.594-12.422 44.14 7.07 63.632 8.522 8.522 18.917 14.198 29.615 16.237l159.921 165.311-194.738 188.39c-7.563 7.317-11.778 17.224-11.866 27.895-.089 10.737 4.193 21.228 11.749 28.783 7.479 7.479 17.832 11.751 28.454 11.75.108 0 .219 0 .328-.001 10.671-.088 20.578-4.303 27.896-11.867l187.571-193.893 187.572 193.893c7.317 7.564 17.225 11.778 27.896 11.867.109.001.219.001.328.001 10.621 0 20.977-4.272 28.455-11.75 7.556-7.556 11.838-18.047 11.748-28.783-.089-10.672-4.304-20.578-11.868-27.895zm-61.672-384.855c1.676-1.622 2.732-3.778 2.987-6.096.811-7.385 4.843-15.188 11.062-21.407 5.946-5.947 13.438-9.94 20.553-10.957 3.564-.509 10.227-.681 14.795 3.886 7.664 7.665 4.427 23.852-7.068 35.348-6.221 6.219-14.023 10.251-21.409 11.062-2.318.255-4.474 1.312-6.096 2.987l-162.266 167.736-20.634-19.961zm-385.839 11.837c-7.386-.811-15.188-4.843-21.407-11.062-11.497-11.496-14.734-27.684-7.07-35.348 3.325-3.325 7.76-4.138 11.302-4.138 1.324 0 2.523.113 3.493.252 7.115 1.017 14.606 5.01 20.553 10.956 6.219 6.22 10.251 14.022 11.062 21.407.255 2.318 1.312 4.474 2.987 6.096l198.823 192.34-21.306 21.306-192.341-198.822c-1.622-1.675-3.777-2.732-6.096-2.987zm1.433 415.672c-3.56 3.68-8.42 5.73-13.687 5.773-.055 0-.11.001-.166.001-5.352 0-10.559-2.143-14.309-5.893-3.789-3.789-5.937-9.065-5.892-14.475.044-5.266 2.094-10.126 5.773-13.686l66.119-63.963 26.123 26.123zm432.054-.118c-3.75 3.75-8.957 5.893-14.309 5.893-.056 0-.111 0-.166-.001-5.267-.043-10.127-2.094-13.687-5.773l-63.963-66.118 26.124-26.124 66.119 63.963c3.68 3.559 5.729 8.419 5.773 13.686.045 5.408-2.102 10.685-5.891 14.474z" fill-rule="evenodd"/></svg>